# xmcd
#
# Track frame offsets:
#	150
#	12838
#	30434
#	55134
#	73355
#	98113
#	115399
#	132512
#	156893
#	170021
#
# Disc length: 2489 seconds
#
# Revision: 1
# Processed by: cddbd v1.5.2PL0 Copyright (c) Steve Scherf et al.
# Submitted via: audiograbber 1.83.01
#
DISCID=8809b70a
DTITLE=Various Artist - Blues 'n' Cues (Volume 1)
DYEAR=2006
DGENRE=Blues
TTITLE0=King Sonic - Doo Doo Doo
TTITLE1=King Sonic - One Less Lonely Night
TTITLE2=Da Mudcats - Eye Witness to Blues
TTITLE3=Da Mudcats - Blue Kentucky Moon
TTITLE4=Bartlett, Robbie - Don't Do Me Wrong
TTITLE5=Bartlett, Robbie - Change is Coming
TTITLE6=O'Nel, Susan - Don't Blame the Blues
TTITLE7=O'Nel, Susan - Walin' in the Blues
TTITLE8=Rose, Sheryl and The Louisville All-Star Band - I Gotta Put My Toys Awa
TTITLE8=y
TTITLE9=Flying Saucers, The - Prison of Blues
EXTD=
EXTT0=
EXTT1=
EXTT2=
EXTT3=
EXTT4=
EXTT5=
EXTT6=
EXTT7=
EXTT8=
EXTT9=
PLAYORDER=
